<svg xmlns="http://www.w3.org/2000/svg" width="25.237" height="25.237" viewBox="0 0 25.237 25.237">
  <path id="check-square-regular" d="M22.533,32H2.7A2.7,2.7,0,0,0,0,34.7V54.533a2.7,2.7,0,0,0,2.7,2.7H22.533a2.7,2.7,0,0,0,2.7-2.7V34.7A2.7,2.7,0,0,0,22.533,32Zm0,22.533H2.7V34.7H22.533Zm-2.02-13.617-9.723,9.645a.676.676,0,0,1-.956,0L4.721,45.4a.676.676,0,0,1,0-.956L6,43.176a.676.676,0,0,1,.956,0l3.368,3.4,7.963-7.9a.676.676,0,0,1,.956,0l1.27,1.28a.676.676,0,0,1,0,.956Z" transform="translate(0 -32)" fill="#747272"/>
</svg>
