<svg xmlns="http://www.w3.org/2000/svg" width="60" height="60" viewBox="0 0 60 60">
  <g id="icon6" transform="translate(-1086 -4507)">
    <rect id="Rectangle_" data-name="Rectangle " width="60" height="60" rx="10" transform="translate(1086 4507)" fill="#72775b"/>
    <path id="sign-language-solid" d="M5.523,29.23a1.753,1.753,0,0,1,1.759-1.759h3.762v-.345h-7.6a1.753,1.753,0,0,1-1.759-1.759,1.725,1.725,0,0,1,1.725-1.692h7.636v-.345H1.76A1.753,1.753,0,0,1,0,21.57a1.726,1.726,0,0,1,1.725-1.692h9.318v-.345H3.486a1.753,1.753,0,0,1-1.759-1.759,1.726,1.726,0,0,1,1.725-1.692h10.18l-1.877-1.365a1.726,1.726,0,1,1,2.03-2.791l7.45,5.418a2.071,2.071,0,0,1,.853,1.675v8.524a2.071,2.071,0,0,1-1.6,2.016L15.632,30.7a8.284,8.284,0,0,1-1.9.22H7.248A1.726,1.726,0,0,1,5.523,29.23ZM9.947,15.6h2.2l-.676-.491a2.209,2.209,0,0,1-.191-3.414l-.785-1.009a1.753,1.753,0,0,0-2.469-.307,1.726,1.726,0,0,0-.275,2.4l2.2,2.821Zm17.11-.127-.3-9.207a1.726,1.726,0,0,0-3.449.113l.076,2.32L17.127.665A1.726,1.726,0,0,0,14.732.344a1.753,1.753,0,0,0-.307,2.469l4.644,5.964-.272.212L13.071,1.636a1.726,1.726,0,0,0-2.395-.322,1.753,1.753,0,0,0-.307,2.469l5.7,7.325-.272.212L11.109,5.3a1.726,1.726,0,0,0-2.395-.322,1.753,1.753,0,0,0-.307,2.469l3.144,4.037a2.2,2.2,0,0,1,2.518.055l7.45,5.418a2.562,2.562,0,0,1,1.052,2.065v1.027l3.688-2.872a2.071,2.071,0,0,0,.8-1.7Z" transform="translate(1102.471 4521.539)" fill="#d9d4d4"/>
  </g>
</svg>
