<svg xmlns="http://www.w3.org/2000/svg" width="60" height="60" viewBox="0 0 60 60">
  <g id="icon3" transform="translate(-1086 -4218)">
    <rect id="Rectangle_" data-name="Rectangle " width="60" height="60" rx="10" transform="translate(1086 4218)" fill="#72775b"/>
    <path id="certificate-solid" d="M27.7,15.456l2.777-2.718a1.439,1.439,0,0,0-.644-2.436l-3.784-.966L27.114,5.59A1.463,1.463,0,0,0,25.323,3.8L21.579,4.865,20.614,1.08A1.449,1.449,0,0,0,18.178.436l-2.717,2.8L12.744.436a1.449,1.449,0,0,0-2.435.644L9.343,4.865,5.6,3.8A1.463,1.463,0,0,0,3.808,5.59L4.874,9.336,1.091,10.3a1.439,1.439,0,0,0-.644,2.436l2.777,2.718L.446,18.174a1.439,1.439,0,0,0,.644,2.436l3.784.966L3.808,25.321A1.463,1.463,0,0,0,5.6,27.113l3.744-1.067.965,3.785a1.436,1.436,0,0,0,2.435.644L15.461,27.7l2.717,2.778a1.442,1.442,0,0,0,2.435-.644l.965-3.785,3.744,1.067a1.463,1.463,0,0,0,1.791-1.792l-1.067-3.745,3.784-.966a1.439,1.439,0,0,0,.644-2.436Z" transform="translate(1100.539 4232.54)" fill="#d9d4d4"/>
  </g>
</svg>
