<svg xmlns="http://www.w3.org/2000/svg" width="60" height="60" viewBox="0 0 60 60">
  <g id="icon5" transform="translate(-690 -4507)">
    <rect id="Rectangle_" data-name="Rectangle " width="60" height="60" rx="10" transform="translate(690 4507)" fill="#72775b"/>
    <path id="fist-raised-solid" d="M15.46,9.663V.966A.966.966,0,0,0,14.493,0H12.561a.966.966,0,0,0-.966.966V9.84a2.873,2.873,0,0,1,.964-.177Zm7.73,5.8A3.865,3.865,0,0,0,19.326,11.6H12.553a.958.958,0,0,0-.96.957v.034a2.874,2.874,0,0,0,2.873,2.874H16.6c.585,0,.8.216.8.483v.978a.5.5,0,0,1-.476.483c-2.689.138-3.875,1.492-5.8,4.382l-.381.572a.483.483,0,0,1-.67.134l-.8-.536a.483.483,0,0,1-.134-.67l.381-.572a17.093,17.093,0,0,1,2.857-3.508,3.886,3.886,0,0,1-2.348-2.081A2.863,2.863,0,0,1,8.7,15.46H6.764a2.878,2.878,0,0,1-1.933-.754,2.878,2.878,0,0,1-1.933.754H.966A2.854,2.854,0,0,1,0,15.283v4.707a7.729,7.729,0,0,0,2.264,5.466l1.6,1.6v3.865h15.46V27.059l2.169-2.169a5.8,5.8,0,0,0,1.7-4.1V15.46Zm-1.933-5.441V2.9a.966.966,0,0,0-.966-.966H18.358a.966.966,0,0,0-.966.966V9.663h1.933A5.723,5.723,0,0,1,21.257,10.019ZM.966,13.528H2.9a.966.966,0,0,0,.966-.966V4.832A.966.966,0,0,0,2.9,3.865H.966A.966.966,0,0,0,0,4.832v7.73A.966.966,0,0,0,.966,13.528Zm5.8,0H8.7a.966.966,0,0,0,.966-.966V2.9A.966.966,0,0,0,8.7,1.933H6.764A.966.966,0,0,0,5.8,2.9v9.663a.966.966,0,0,0,.966.966Z" transform="translate(708.404 4521.539)" fill="#d9d4d4"/>
  </g>
</svg>
