<svg xmlns="http://www.w3.org/2000/svg" width="60" height="60" viewBox="0 0 60 60">
  <g id="icon2" transform="translate(-690 -4218)">
    <rect id="Rectangle_" data-name="Rectangle " width="60" height="60" rx="10" transform="translate(690 4218)" fill="#72775b"/>
    <path id="cat-solid" d="M17.55,41.663a11.6,11.6,0,0,0-9.82,5.191V41.663a5.8,5.8,0,0,0-5.8-5.8,1.933,1.933,0,1,0,0,3.865,1.935,1.935,0,0,1,1.933,1.933V57.124A3.869,3.869,0,0,0,7.73,60.989H18.36a.966.966,0,0,0,.966-.966v-.966a1.933,1.933,0,0,0-1.933-1.933H15.461l7.73-5.8v8.7a.966.966,0,0,0,.966.966H26.09a.966.966,0,0,0,.966-.966V47.573a7.653,7.653,0,0,1-1.933.274A7.743,7.743,0,0,1,17.55,41.663Zm9.507-5.8H23.191L19.326,32v8.117a5.8,5.8,0,0,0,11.6,0V32ZM22.708,40.7a.966.966,0,1,1,.966-.966A.966.966,0,0,1,22.708,40.7Zm4.832,0a.966.966,0,1,1,.966-.966A.966.966,0,0,1,27.54,40.7Z" transform="translate(704.539 4201.505)" fill="#d9d4d4"/>
  </g>
</svg>
