<svg xmlns="http://www.w3.org/2000/svg" width="60" height="60" viewBox="0 0 60 60">
  <g id="icon4" transform="translate(-294 -4507)">
    <rect id="Rectangle_" data-name="Rectangle " width="60" height="60" rx="10" transform="translate(294 4507)" fill="#72775b"/>
    <path id="grin-beam-solid" d="M14.978,8A14.978,14.978,0,1,0,29.956,22.978,14.975,14.975,0,0,0,14.978,8Zm4.832,8.7c1.437,0,3.183,1.77,3.382,4.312a.481.481,0,0,1-.9.272l-.574-1.027a2.259,2.259,0,0,0-1.9-1.3,2.259,2.259,0,0,0-1.9,1.3l-.574,1.027a.482.482,0,0,1-.9-.272C16.627,18.466,18.372,16.7,19.809,16.7Zm-9.663,0c1.437,0,3.183,1.77,3.382,4.312a.481.481,0,0,1-.9.272l-.574-1.027a2.259,2.259,0,0,0-1.9-1.3,2.259,2.259,0,0,0-1.9,1.3l-.574,1.027a.482.482,0,0,1-.9-.272C6.963,18.466,8.709,16.7,10.146,16.7Zm4.832,16.91c-3.66,0-8.123-2.313-8.685-5.635a.968.968,0,0,1,1.25-1.081,26.105,26.105,0,0,0,7.435.918,26.1,26.1,0,0,0,7.435-.918.969.969,0,0,1,1.25,1.081C23.1,31.294,18.638,33.607,14.978,33.607Z" transform="translate(309.022 4514.022)" fill="#d9d4d4"/>
  </g>
</svg>
