<svg xmlns="http://www.w3.org/2000/svg" width="42" height="42" viewBox="0 0 42 42">
  <g id="LinkedIn" transform="translate(-926 -3611)">
    <circle id="Ellipse_4" data-name="Ellipse 4" cx="21" cy="21" r="21" transform="translate(926 3611)" fill="#72775b"/>
    <path id="linkedin-in-brands" d="M3.516,15.719H.259V5.231H3.516ZM1.886,3.8A1.9,1.9,0,1,1,3.772,1.9,1.9,1.9,0,0,1,1.886,3.8Zm13.82,11.919h-3.25V10.614c0-1.217-.025-2.777-1.693-2.777-1.693,0-1.953,1.322-1.953,2.69v5.193H5.557V5.231H8.68V6.662h.046a3.422,3.422,0,0,1,3.082-1.694c3.3,0,3.9,2.171,3.9,4.99v5.761Z" transform="translate(939 3623.99)" fill="#fff"/>
  </g>
</svg>
