<svg xmlns="http://www.w3.org/2000/svg" width="1439.503" height="523.942" viewBox="0 0 1439.503 523.942">
  <g id="wave" transform="translate(-0.833 -4746.763)">
    <path id="Path_" data-name="Path " d="M1552,4780.856s229.545-51.883,340.533,49.229,139.582,146.362,215.195,165.081,259.708,80.182,424.936-30.953,226.4-107.6,293.313-78.119,144.445,73.55,165.081,92.269" transform="translate(-1551.057 -20.283)" fill="none" stroke="#c5c0c1" stroke-width="1"/>
    <path id="Path_2" data-name="Path " d="M1552,4780.856s229.545-51.883,340.533,49.229,139.582,146.362,215.195,165.081,259.708,80.182,424.936-30.953,226.4-107.6,293.313-78.119,144.445,73.55,165.081,92.269" transform="translate(-1551.057 59.717)" fill="none" stroke="#c5c0c1" stroke-width="1"/>
    <path id="Path_3" data-name="Path " d="M1552,4780.856s229.545-51.883,340.533,49.229,139.582,146.362,215.195,165.081,259.708,80.182,424.936-30.953,226.4-107.6,293.313-78.119,144.445,73.55,165.081,92.269" transform="translate(-1551.057 147.717)" fill="none" stroke="#c5c0c1" stroke-width="1"/>
    <path id="Path_4" data-name="Path " d="M1552,4780.856s229.545-51.883,340.533,49.229,139.582,146.362,215.195,165.081,259.708,80.182,424.936-30.953,226.4-107.6,293.313-78.119,144.445,73.55,165.081,92.269" transform="translate(-1551.057 241.188)" fill="none" stroke="#c5c0c1" stroke-width="1"/>
  </g>
</svg>
